<svg xmlns="http://www.w3.org/2000/svg" viewBox="0 0 512 384" role="img" aria-labelledby="title"><title id="title">Deep Space Capsule</title><defs><linearGradient id="bg" x1="0" y1="0" x2="1" y2="1"><stop stop-color="#121d2b"/><stop offset="1" stop-color="#070b12"/></linearGradient><radialGradient id="glow"><stop stop-color="#91d5c4" stop-opacity=".24"/><stop offset="1" stop-color="#91d5c4" stop-opacity="0"/></radialGradient></defs><rect width="512" height="384" rx="22" fill="url(#bg)"/><circle cx="256" cy="180" r="195" fill="url(#glow)"/><circle cx="249" cy="308" r="1" fill="#dceaff" opacity="0.45"/><circle cx="455" cy="322" r="1" fill="#dceaff" opacity="0.33"/><circle cx="280" cy="265" r="2" fill="#dceaff" opacity="0.53"/><circle cx="113" cy="70" r="1" fill="#dceaff" opacity="0.39"/><circle cx="64" cy="297" r="2" fill="#dceaff" opacity="0.54"/><circle cx="322" cy="224" r="1" fill="#dceaff" opacity="0.54"/><circle cx="333" cy="102" r="2" fill="#dceaff" opacity="0.26"/><circle cx="288" cy="54" r="1" fill="#dceaff" opacity="0.27"/><circle cx="468" cy="145" r="2" fill="#dceaff" opacity="0.26"/><circle cx="255" cy="189" r="1" fill="#dceaff" opacity="0.52"/><circle cx="118" cy="287" r="1" fill="#dceaff" opacity="0.54"/><circle cx="273" cy="24" r="2" fill="#dceaff" opacity="0.29"/><circle cx="353" cy="164" r="1" fill="#dceaff" opacity="0.70"/><circle cx="448" cy="64" r="2" fill="#dceaff" opacity="0.36"/><circle cx="406" cy="139" r="2" fill="#dceaff" opacity="0.38"/><circle cx="53" cy="310" r="1" fill="#dceaff" opacity="0.43"/><circle cx="451" cy="170" r="1" fill="#dceaff" opacity="0.28"/><circle cx="26" cy="22" r="1" fill="#dceaff" opacity="0.34"/><circle cx="484" cy="48" r="1" fill="#dceaff" opacity="0.42"/><circle cx="380" cy="225" r="1" fill="#dceaff" opacity="0.28"/><circle cx="340" cy="123" r="2" fill="#dceaff" opacity="0.37"/><circle cx="62" cy="181" r="1" fill="#dceaff" opacity="0.26"/><circle cx="227" cy="82" r="1" fill="#dceaff" opacity="0.36"/><circle cx="69" cy="27" r="1" fill="#dceaff" opacity="0.46"/><path d="M36 315h440" stroke="#dbeaff" stroke-opacity=".12"/><ellipse cx="256" cy="300" rx="155" ry="23" fill="#182638" opacity=".55"/><g><path d="M256 76Q294 126 294 189l77 51-21 18-65-25-9 54 37 27-13 12-47-19-47 19-13-12 37-27-9-54-65 25-21-18 77-51q0-63 44-113Z" fill="#3c817d" stroke="#91d5c4" stroke-width="6"/><path d="M256 116q25 34 25 70h-50q0-36 25-70Z" fill="#91d5c4"/><rect x="235" y="207" width="42" height="48" rx="10" fill="#132238" stroke="#eaf2ff" stroke-width="4"/></g><rect x="26" y="22" width="460" height="340" rx="18" fill="none" stroke="#e2edff" stroke-opacity=".12"/><text x="256" y="344" fill="#f0f4f8" font-family="Segoe UI,Arial,sans-serif" font-size="20" font-weight="600" text-anchor="middle" letter-spacing="1">Deep Space Capsule</text></svg>