<svg xmlns="http://www.w3.org/2000/svg" viewBox="0 0 512 384" role="img" aria-labelledby="title"><title id="title">Lunar Work Suit</title><defs><linearGradient id="bg" x1="0" y1="0" x2="1" y2="1"><stop stop-color="#121d2b"/><stop offset="1" stop-color="#070b12"/></linearGradient><radialGradient id="glow"><stop stop-color="#f0c27c" stop-opacity=".24"/><stop offset="1" stop-color="#f0c27c" stop-opacity="0"/></radialGradient></defs><rect width="512" height="384" rx="22" fill="url(#bg)"/><circle cx="256" cy="180" r="195" fill="url(#glow)"/><circle cx="203" cy="262" r="1" fill="#dceaff" opacity="0.38"/><circle cx="134" cy="250" r="1" fill="#dceaff" opacity="0.43"/><circle cx="354" cy="154" r="1" fill="#dceaff" opacity="0.54"/><circle cx="23" cy="173" r="1" fill="#dceaff" opacity="0.62"/><circle cx="359" cy="94" r="2" fill="#dceaff" opacity="0.52"/><circle cx="29" cy="134" r="2" fill="#dceaff" opacity="0.36"/><circle cx="475" cy="100" r="2" fill="#dceaff" opacity="0.55"/><circle cx="32" cy="259" r="1" fill="#dceaff" opacity="0.52"/><circle cx="378" cy="173" r="1" fill="#dceaff" opacity="0.60"/><circle cx="203" cy="154" r="1" fill="#dceaff" opacity="0.60"/><circle cx="196" cy="275" r="1" fill="#dceaff" opacity="0.48"/><circle cx="106" cy="310" r="1" fill="#dceaff" opacity="0.51"/><circle cx="162" cy="64" r="1" fill="#dceaff" opacity="0.49"/><circle cx="138" cy="272" r="1" fill="#dceaff" opacity="0.39"/><circle cx="180" cy="257" r="1" fill="#dceaff" opacity="0.28"/><circle cx="376" cy="268" r="2" fill="#dceaff" opacity="0.63"/><circle cx="245" cy="273" r="1" fill="#dceaff" opacity="0.66"/><circle cx="261" cy="84" r="1" fill="#dceaff" opacity="0.62"/><circle cx="58" cy="277" r="2" fill="#dceaff" opacity="0.26"/><circle cx="91" cy="140" r="1" fill="#dceaff" opacity="0.65"/><circle cx="34" cy="298" r="1" fill="#dceaff" opacity="0.55"/><circle cx="222" cy="185" r="1" fill="#dceaff" opacity="0.48"/><circle cx="434" cy="58" r="1" fill="#dceaff" opacity="0.39"/><circle cx="380" cy="69" r="2" fill="#dceaff" opacity="0.30"/><path d="M36 315h440" stroke="#dbeaff" stroke-opacity=".12"/><ellipse cx="256" cy="300" rx="155" ry="23" fill="#182638" opacity=".55"/><g><circle cx="256" cy="119" r="48" fill="#93633d" stroke="#f0c27c" stroke-width="6"/><path d="M218 112q38-29 76 0v30h-76z" fill="#13263c" stroke="#eaf2ff" stroke-width="4"/><path d="M205 187q51-31 102 0l24 94-27 12-48-14-48 14-27-12z" fill="#93633d" stroke="#f0c27c" stroke-width="6"/><path d="M207 193l-39 63 18 13 43-47m76-29 39 63-18 13-43-47" fill="none" stroke="#f0c27c" stroke-width="17" stroke-linecap="round"/><path d="M235 273l-12 58m54-58 12 58" stroke="#f0c27c" stroke-width="19" stroke-linecap="round"/><rect x="237" y="205" width="38" height="31" rx="6" fill="#172438" stroke="#eaf2ff" stroke-width="3"/><circle cx="256" cy="220" r="6" fill="#f0c27c"/></g><rect x="26" y="22" width="460" height="340" rx="18" fill="none" stroke="#e2edff" stroke-opacity=".12"/><text x="256" y="344" fill="#f0f4f8" font-family="Segoe UI,Arial,sans-serif" font-size="20" font-weight="600" text-anchor="middle" letter-spacing="1">Lunar Work Suit</text></svg>