<svg xmlns="http://www.w3.org/2000/svg" viewBox="0 0 512 384" role="img" aria-labelledby="title"><title id="title">Oxygen Reserve Pack</title><defs><linearGradient id="bg" x1="0" y1="0" x2="1" y2="1"><stop stop-color="#121d2b"/><stop offset="1" stop-color="#070b12"/></linearGradient><radialGradient id="glow"><stop stop-color="#e3b276" stop-opacity=".24"/><stop offset="1" stop-color="#e3b276" stop-opacity="0"/></radialGradient></defs><rect width="512" height="384" rx="22" fill="url(#bg)"/><circle cx="256" cy="180" r="195" fill="url(#glow)"/><circle cx="400" cy="125" r="2" fill="#dceaff" opacity="0.34"/><circle cx="325" cy="300" r="1" fill="#dceaff" opacity="0.31"/><circle cx="409" cy="266" r="1" fill="#dceaff" opacity="0.58"/><circle cx="337" cy="279" r="1" fill="#dceaff" opacity="0.54"/><circle cx="142" cy="231" r="2" fill="#dceaff" opacity="0.63"/><circle cx="420" cy="36" r="2" fill="#dceaff" opacity="0.67"/><circle cx="131" cy="95" r="1" fill="#dceaff" opacity="0.35"/><circle cx="265" cy="221" r="1" fill="#dceaff" opacity="0.36"/><circle cx="317" cy="37" r="1" fill="#dceaff" opacity="0.69"/><circle cx="168" cy="300" r="2" fill="#dceaff" opacity="0.31"/><circle cx="40" cy="25" r="1" fill="#dceaff" opacity="0.52"/><circle cx="305" cy="182" r="1" fill="#dceaff" opacity="0.63"/><circle cx="234" cy="243" r="2" fill="#dceaff" opacity="0.34"/><circle cx="469" cy="150" r="1" fill="#dceaff" opacity="0.67"/><circle cx="214" cy="241" r="2" fill="#dceaff" opacity="0.48"/><circle cx="48" cy="72" r="1" fill="#dceaff" opacity="0.31"/><circle cx="298" cy="44" r="1" fill="#dceaff" opacity="0.43"/><circle cx="207" cy="327" r="1" fill="#dceaff" opacity="0.63"/><circle cx="185" cy="75" r="1" fill="#dceaff" opacity="0.60"/><circle cx="233" cy="256" r="2" fill="#dceaff" opacity="0.28"/><circle cx="198" cy="71" r="2" fill="#dceaff" opacity="0.36"/><circle cx="59" cy="90" r="2" fill="#dceaff" opacity="0.68"/><circle cx="196" cy="245" r="1" fill="#dceaff" opacity="0.48"/><circle cx="326" cy="221" r="2" fill="#dceaff" opacity="0.26"/><path d="M36 315h440" stroke="#dbeaff" stroke-opacity=".12"/><ellipse cx="256" cy="300" rx="155" ry="23" fill="#182638" opacity=".55"/><g><path d="M202 143h108l22 31v116q0 18-18 18h-116q-18 0-18-18V174z" fill="#8d5c45" stroke="#e3b276" stroke-width="6"/><path d="M222 143v-25h68v25" fill="none" stroke="#e3b276" stroke-width="7"/><rect x="212" y="183" width="88" height="58" rx="8" fill="#14283b" stroke="#eaf2ff" stroke-width="4"/><path d="M230 212h52" stroke="#e3b276" stroke-width="6" stroke-linecap="round"/><circle cx="256" cy="265" r="9" fill="#eaf2ff"/></g><rect x="26" y="22" width="460" height="340" rx="18" fill="none" stroke="#e2edff" stroke-opacity=".12"/><text x="256" y="344" fill="#f0f4f8" font-family="Segoe UI,Arial,sans-serif" font-size="17" font-weight="600" text-anchor="middle" letter-spacing="1">Oxygen Reserve Pack</text></svg>