<svg xmlns="http://www.w3.org/2000/svg" viewBox="0 0 512 384" role="img" aria-labelledby="title"><title id="title">Repair Foam</title><defs><linearGradient id="bg" x1="0" y1="0" x2="1" y2="1"><stop stop-color="#121d2b"/><stop offset="1" stop-color="#070b12"/></linearGradient><radialGradient id="glow"><stop stop-color="#e58f9b" stop-opacity=".24"/><stop offset="1" stop-color="#e58f9b" stop-opacity="0"/></radialGradient></defs><rect width="512" height="384" rx="22" fill="url(#bg)"/><circle cx="256" cy="180" r="195" fill="url(#glow)"/><circle cx="367" cy="68" r="2" fill="#dceaff" opacity="0.55"/><circle cx="400" cy="285" r="1" fill="#dceaff" opacity="0.53"/><circle cx="207" cy="246" r="2" fill="#dceaff" opacity="0.61"/><circle cx="367" cy="255" r="2" fill="#dceaff" opacity="0.61"/><circle cx="491" cy="215" r="2" fill="#dceaff" opacity="0.44"/><circle cx="91" cy="47" r="1" fill="#dceaff" opacity="0.44"/><circle cx="296" cy="169" r="1" fill="#dceaff" opacity="0.54"/><circle cx="239" cy="322" r="2" fill="#dceaff" opacity="0.41"/><circle cx="379" cy="315" r="1" fill="#dceaff" opacity="0.61"/><circle cx="335" cy="131" r="2" fill="#dceaff" opacity="0.44"/><circle cx="22" cy="25" r="2" fill="#dceaff" opacity="0.48"/><circle cx="202" cy="57" r="2" fill="#dceaff" opacity="0.51"/><circle cx="30" cy="187" r="1" fill="#dceaff" opacity="0.49"/><circle cx="438" cy="33" r="2" fill="#dceaff" opacity="0.26"/><circle cx="129" cy="181" r="2" fill="#dceaff" opacity="0.35"/><circle cx="350" cy="176" r="2" fill="#dceaff" opacity="0.27"/><circle cx="157" cy="126" r="1" fill="#dceaff" opacity="0.31"/><circle cx="154" cy="46" r="1" fill="#dceaff" opacity="0.45"/><circle cx="303" cy="23" r="1" fill="#dceaff" opacity="0.54"/><circle cx="63" cy="248" r="2" fill="#dceaff" opacity="0.31"/><circle cx="197" cy="37" r="1" fill="#dceaff" opacity="0.70"/><circle cx="50" cy="317" r="1" fill="#dceaff" opacity="0.53"/><circle cx="354" cy="147" r="2" fill="#dceaff" opacity="0.38"/><circle cx="31" cy="317" r="1" fill="#dceaff" opacity="0.49"/><path d="M36 315h440" stroke="#dbeaff" stroke-opacity=".12"/><ellipse cx="256" cy="300" rx="155" ry="23" fill="#182638" opacity=".55"/><g><path d="M202 143h108l22 31v116q0 18-18 18h-116q-18 0-18-18V174z" fill="#8f4e66" stroke="#e58f9b" stroke-width="6"/><path d="M222 143v-25h68v25" fill="none" stroke="#e58f9b" stroke-width="7"/><rect x="212" y="183" width="88" height="58" rx="8" fill="#14283b" stroke="#eaf2ff" stroke-width="4"/><path d="M230 212h52" stroke="#e58f9b" stroke-width="6" stroke-linecap="round"/><circle cx="256" cy="265" r="9" fill="#eaf2ff"/></g><rect x="26" y="22" width="460" height="340" rx="18" fill="none" stroke="#e2edff" stroke-opacity=".12"/><text x="256" y="344" fill="#f0f4f8" font-family="Segoe UI,Arial,sans-serif" font-size="20" font-weight="600" text-anchor="middle" letter-spacing="1">Repair Foam</text></svg>