<svg xmlns="http://www.w3.org/2000/svg" viewBox="0 0 512 384" role="img" aria-labelledby="title"><title id="title">Cosmo Torch</title><defs><linearGradient id="bg" x1="0" y1="0" x2="1" y2="1"><stop stop-color="#121d2b"/><stop offset="1" stop-color="#070b12"/></linearGradient><radialGradient id="glow"><stop stop-color="#c4a4ea" stop-opacity=".24"/><stop offset="1" stop-color="#c4a4ea" stop-opacity="0"/></radialGradient></defs><rect width="512" height="384" rx="22" fill="url(#bg)"/><circle cx="256" cy="180" r="195" fill="url(#glow)"/><circle cx="138" cy="177" r="1" fill="#dceaff" opacity="0.57"/><circle cx="263" cy="101" r="1" fill="#dceaff" opacity="0.28"/><circle cx="223" cy="303" r="1" fill="#dceaff" opacity="0.61"/><circle cx="409" cy="52" r="1" fill="#dceaff" opacity="0.48"/><circle cx="202" cy="163" r="1" fill="#dceaff" opacity="0.62"/><circle cx="152" cy="131" r="1" fill="#dceaff" opacity="0.62"/><circle cx="431" cy="155" r="1" fill="#dceaff" opacity="0.34"/><circle cx="176" cy="170" r="2" fill="#dceaff" opacity="0.64"/><circle cx="455" cy="212" r="1" fill="#dceaff" opacity="0.63"/><circle cx="190" cy="220" r="2" fill="#dceaff" opacity="0.36"/><circle cx="144" cy="264" r="1" fill="#dceaff" opacity="0.29"/><circle cx="436" cy="302" r="1" fill="#dceaff" opacity="0.25"/><circle cx="167" cy="315" r="2" fill="#dceaff" opacity="0.65"/><circle cx="452" cy="282" r="1" fill="#dceaff" opacity="0.44"/><circle cx="324" cy="169" r="1" fill="#dceaff" opacity="0.45"/><circle cx="137" cy="178" r="1" fill="#dceaff" opacity="0.62"/><circle cx="40" cy="63" r="1" fill="#dceaff" opacity="0.46"/><circle cx="161" cy="287" r="2" fill="#dceaff" opacity="0.54"/><circle cx="376" cy="197" r="1" fill="#dceaff" opacity="0.70"/><circle cx="118" cy="56" r="1" fill="#dceaff" opacity="0.66"/><circle cx="343" cy="247" r="1" fill="#dceaff" opacity="0.33"/><circle cx="241" cy="323" r="1" fill="#dceaff" opacity="0.54"/><circle cx="119" cy="187" r="1" fill="#dceaff" opacity="0.63"/><circle cx="380" cy="139" r="1" fill="#dceaff" opacity="0.59"/><path d="M36 315h440" stroke="#dbeaff" stroke-opacity=".12"/><ellipse cx="256" cy="300" rx="155" ry="23" fill="#182638" opacity=".55"/><g><path d="M214 167h84l18 35v76q0 17-17 17h-86q-17 0-17-17v-76z" fill="#66548c" stroke="#c4a4ea" stroke-width="6"/><path d="M226 166v-34h60v34" fill="none" stroke="#c4a4ea" stroke-width="8"/><circle cx="256" cy="218" r="30" fill="#14283b" stroke="#eaf2ff" stroke-width="5"/><circle cx="256" cy="218" r="16" fill="#c4a4ea"/><path d="M237 274h38m-19-164V90m-25 29-14-14m64 14 14-14" stroke="#ffe9a5" stroke-width="5" stroke-linecap="round"/></g><rect x="26" y="22" width="460" height="340" rx="18" fill="none" stroke="#e2edff" stroke-opacity=".12"/><text x="256" y="344" fill="#f0f4f8" font-family="Segoe UI,Arial,sans-serif" font-size="20" font-weight="600" text-anchor="middle" letter-spacing="1">Cosmo Torch</text></svg>