<svg xmlns="http://www.w3.org/2000/svg" viewBox="0 0 512 384" role="img" aria-labelledby="title"><title id="title">Hydration Gel</title><defs><linearGradient id="bg" x1="0" y1="0" x2="1" y2="1"><stop stop-color="#121d2b"/><stop offset="1" stop-color="#070b12"/></linearGradient><radialGradient id="glow"><stop stop-color="#91d5c4" stop-opacity=".24"/><stop offset="1" stop-color="#91d5c4" stop-opacity="0"/></radialGradient></defs><rect width="512" height="384" rx="22" fill="url(#bg)"/><circle cx="256" cy="180" r="195" fill="url(#glow)"/><circle cx="37" cy="168" r="2" fill="#dceaff" opacity="0.59"/><circle cx="254" cy="211" r="2" fill="#dceaff" opacity="0.56"/><circle cx="67" cy="254" r="2" fill="#dceaff" opacity="0.47"/><circle cx="27" cy="285" r="1" fill="#dceaff" opacity="0.51"/><circle cx="337" cy="302" r="1" fill="#dceaff" opacity="0.43"/><circle cx="47" cy="76" r="1" fill="#dceaff" opacity="0.42"/><circle cx="67" cy="104" r="2" fill="#dceaff" opacity="0.63"/><circle cx="83" cy="220" r="2" fill="#dceaff" opacity="0.69"/><circle cx="157" cy="316" r="1" fill="#dceaff" opacity="0.42"/><circle cx="43" cy="318" r="1" fill="#dceaff" opacity="0.33"/><circle cx="49" cy="106" r="1" fill="#dceaff" opacity="0.37"/><circle cx="57" cy="289" r="2" fill="#dceaff" opacity="0.30"/><circle cx="456" cy="321" r="2" fill="#dceaff" opacity="0.67"/><circle cx="365" cy="53" r="1" fill="#dceaff" opacity="0.63"/><circle cx="252" cy="191" r="1" fill="#dceaff" opacity="0.49"/><circle cx="376" cy="246" r="1" fill="#dceaff" opacity="0.31"/><circle cx="59" cy="185" r="1" fill="#dceaff" opacity="0.64"/><circle cx="155" cy="210" r="2" fill="#dceaff" opacity="0.33"/><circle cx="327" cy="58" r="2" fill="#dceaff" opacity="0.55"/><circle cx="170" cy="275" r="2" fill="#dceaff" opacity="0.68"/><circle cx="384" cy="244" r="1" fill="#dceaff" opacity="0.46"/><circle cx="230" cy="330" r="1" fill="#dceaff" opacity="0.41"/><circle cx="348" cy="66" r="2" fill="#dceaff" opacity="0.58"/><circle cx="311" cy="179" r="1" fill="#dceaff" opacity="0.56"/><path d="M36 315h440" stroke="#dbeaff" stroke-opacity=".12"/><ellipse cx="256" cy="300" rx="155" ry="23" fill="#182638" opacity=".55"/><g><path d="M204 149h104l-13 28 20 103q4 22-18 22h-84q-22 0-18-22l20-103z" fill="#3c817d" stroke="#91d5c4" stroke-width="6"/><path d="M215 184h82l12 78H203z" fill="#172b3e" stroke="#eaf2ff" stroke-width="4"/><path d="M231 216q25-34 50 0-25 36-50 0" fill="#91d5c4"/><path d="M223 278h66" stroke="#eaf2ff" stroke-width="5" stroke-linecap="round"/></g><rect x="26" y="22" width="460" height="340" rx="18" fill="none" stroke="#e2edff" stroke-opacity=".12"/><text x="256" y="344" fill="#f0f4f8" font-family="Segoe UI,Arial,sans-serif" font-size="20" font-weight="600" text-anchor="middle" letter-spacing="1">Hydration Gel</text></svg>