<svg xmlns="http://www.w3.org/2000/svg" viewBox="0 0 512 384" role="img" aria-labelledby="title"><title id="title">Zero-G Snack Mix</title><defs><linearGradient id="bg" x1="0" y1="0" x2="1" y2="1"><stop stop-color="#121d2b"/><stop offset="1" stop-color="#070b12"/></linearGradient><radialGradient id="glow"><stop stop-color="#f0c27c" stop-opacity=".24"/><stop offset="1" stop-color="#f0c27c" stop-opacity="0"/></radialGradient></defs><rect width="512" height="384" rx="22" fill="url(#bg)"/><circle cx="256" cy="180" r="195" fill="url(#glow)"/><circle cx="298" cy="183" r="1" fill="#dceaff" opacity="0.50"/><circle cx="291" cy="176" r="2" fill="#dceaff" opacity="0.34"/><circle cx="408" cy="245" r="1" fill="#dceaff" opacity="0.32"/><circle cx="431" cy="77" r="1" fill="#dceaff" opacity="0.54"/><circle cx="129" cy="283" r="2" fill="#dceaff" opacity="0.63"/><circle cx="97" cy="263" r="1" fill="#dceaff" opacity="0.26"/><circle cx="234" cy="54" r="1" fill="#dceaff" opacity="0.47"/><circle cx="101" cy="87" r="1" fill="#dceaff" opacity="0.56"/><circle cx="167" cy="195" r="2" fill="#dceaff" opacity="0.40"/><circle cx="448" cy="144" r="1" fill="#dceaff" opacity="0.37"/><circle cx="25" cy="314" r="1" fill="#dceaff" opacity="0.53"/><circle cx="198" cy="245" r="1" fill="#dceaff" opacity="0.34"/><circle cx="425" cy="163" r="1" fill="#dceaff" opacity="0.41"/><circle cx="165" cy="315" r="1" fill="#dceaff" opacity="0.52"/><circle cx="374" cy="81" r="1" fill="#dceaff" opacity="0.35"/><circle cx="186" cy="263" r="2" fill="#dceaff" opacity="0.55"/><circle cx="418" cy="242" r="1" fill="#dceaff" opacity="0.60"/><circle cx="418" cy="210" r="1" fill="#dceaff" opacity="0.44"/><circle cx="180" cy="22" r="2" fill="#dceaff" opacity="0.66"/><circle cx="345" cy="229" r="1" fill="#dceaff" opacity="0.44"/><circle cx="150" cy="101" r="1" fill="#dceaff" opacity="0.34"/><circle cx="306" cy="136" r="2" fill="#dceaff" opacity="0.67"/><circle cx="102" cy="136" r="1" fill="#dceaff" opacity="0.32"/><circle cx="441" cy="319" r="2" fill="#dceaff" opacity="0.56"/><path d="M36 315h440" stroke="#dbeaff" stroke-opacity=".12"/><ellipse cx="256" cy="300" rx="155" ry="23" fill="#182638" opacity=".55"/><g><path d="M182 174l25-25h114l20 27-12 102-23 23H203l-24-25z" fill="#93633d" stroke="#f0c27c" stroke-width="6"/><path d="M197 187h119l-8 90H192z" fill="#17283b" stroke="#eaf2ff" stroke-width="4"/><path d="M217 213h76m-68 19h60m-50 19h42" stroke="#f0c27c" stroke-width="7" stroke-linecap="round"/></g><rect x="26" y="22" width="460" height="340" rx="18" fill="none" stroke="#e2edff" stroke-opacity=".12"/><text x="256" y="344" fill="#f0f4f8" font-family="Segoe UI,Arial,sans-serif" font-size="20" font-weight="600" text-anchor="middle" letter-spacing="1">Zero-G Snack Mix</text></svg>