<svg xmlns="http://www.w3.org/2000/svg" viewBox="0 0 512 384" role="img" aria-labelledby="title"><title id="title">Starlight Tea</title><defs><linearGradient id="bg" x1="0" y1="0" x2="1" y2="1"><stop stop-color="#121d2b"/><stop offset="1" stop-color="#070b12"/></linearGradient><radialGradient id="glow"><stop stop-color="#e3b276" stop-opacity=".24"/><stop offset="1" stop-color="#e3b276" stop-opacity="0"/></radialGradient></defs><rect width="512" height="384" rx="22" fill="url(#bg)"/><circle cx="256" cy="180" r="195" fill="url(#glow)"/><circle cx="272" cy="158" r="1" fill="#dceaff" opacity="0.54"/><circle cx="142" cy="264" r="1" fill="#dceaff" opacity="0.29"/><circle cx="180" cy="136" r="2" fill="#dceaff" opacity="0.50"/><circle cx="494" cy="100" r="1" fill="#dceaff" opacity="0.62"/><circle cx="195" cy="185" r="1" fill="#dceaff" opacity="0.34"/><circle cx="460" cy="190" r="2" fill="#dceaff" opacity="0.65"/><circle cx="237" cy="67" r="1" fill="#dceaff" opacity="0.56"/><circle cx="440" cy="193" r="2" fill="#dceaff" opacity="0.54"/><circle cx="238" cy="24" r="1" fill="#dceaff" opacity="0.40"/><circle cx="426" cy="244" r="2" fill="#dceaff" opacity="0.69"/><circle cx="120" cy="248" r="1" fill="#dceaff" opacity="0.66"/><circle cx="315" cy="257" r="1" fill="#dceaff" opacity="0.37"/><circle cx="125" cy="295" r="2" fill="#dceaff" opacity="0.31"/><circle cx="367" cy="82" r="2" fill="#dceaff" opacity="0.60"/><circle cx="296" cy="276" r="1" fill="#dceaff" opacity="0.65"/><circle cx="435" cy="294" r="2" fill="#dceaff" opacity="0.31"/><circle cx="310" cy="286" r="1" fill="#dceaff" opacity="0.29"/><circle cx="206" cy="286" r="1" fill="#dceaff" opacity="0.25"/><circle cx="22" cy="322" r="2" fill="#dceaff" opacity="0.43"/><circle cx="422" cy="297" r="1" fill="#dceaff" opacity="0.32"/><circle cx="311" cy="72" r="1" fill="#dceaff" opacity="0.37"/><circle cx="432" cy="147" r="1" fill="#dceaff" opacity="0.27"/><circle cx="283" cy="46" r="1" fill="#dceaff" opacity="0.54"/><circle cx="367" cy="156" r="2" fill="#dceaff" opacity="0.44"/><path d="M36 315h440" stroke="#dbeaff" stroke-opacity=".12"/><ellipse cx="256" cy="300" rx="155" ry="23" fill="#182638" opacity=".55"/><g><path d="M204 149h104l-13 28 20 103q4 22-18 22h-84q-22 0-18-22l20-103z" fill="#8d5c45" stroke="#e3b276" stroke-width="6"/><path d="M215 184h82l12 78H203z" fill="#172b3e" stroke="#eaf2ff" stroke-width="4"/><path d="M231 216q25-34 50 0-25 36-50 0" fill="#e3b276"/><path d="M223 278h66" stroke="#eaf2ff" stroke-width="5" stroke-linecap="round"/></g><rect x="26" y="22" width="460" height="340" rx="18" fill="none" stroke="#e2edff" stroke-opacity=".12"/><text x="256" y="344" fill="#f0f4f8" font-family="Segoe UI,Arial,sans-serif" font-size="20" font-weight="600" text-anchor="middle" letter-spacing="1">Starlight Tea</text></svg>